<svg xmlns="http://www.w3.org/2000/svg" xmlns:xlink="http://www.w3.org/1999/xlink" width="97" height="138" viewBox="0 0 97 138"><defs><path id="prc6a" d="M696.49 23.535c-26.557 0-48.164 21.607-48.164 48.165 0 8.972 2.486 17.73 7.19 25.326l38.233 61.613a4.015 4.015 0 0 0 3.41 1.896h.032a4.013 4.013 0 0 0 3.412-1.95l37.258-62.21a48.1 48.1 0 0 0 6.794-24.676c0-26.557-21.607-48.164-48.164-48.164zm34.482 68.72l-33.873 56.557-34.76-56.015c-3.916-6.323-6.04-13.618-6.04-21.097 0-22.132 18.06-40.19 40.192-40.19 22.13 0 40.163 18.059 40.163 40.19a40.1 40.1 0 0 1-5.682 20.554z"/></defs><g><g transform="translate(-648 -23)"><use fill="#486fbe" xlink:href="#prc6a"/></g></g></svg>