<svg xmlns="http://www.w3.org/2000/svg" xmlns:xlink="http://www.w3.org/1999/xlink" width="155" height="139" viewBox="0 0 155 139"><defs><path id="2aosa" d="M877.644 112.43c15.577 1.397 27.826 14.522 27.827 30.456v14.795a3.013 3.013 0 0 1-3.012 3.013h-81.904a3.013 3.013 0 0 1-3.013-3.013v-14.795c0-15.934 12.25-29.059 27.827-30.458a3.04 3.04 0 0 1 1.3-.09l.152-.005c-3.91-3.822-6.346-9.148-6.346-15.036V81.005c0-9.225 7.505-16.73 16.731-16.73h22.32a3.014 3.014 0 0 1 3.012 3.013v30.01c0 5.887-2.435 11.214-6.346 15.035l.152.005a3.025 3.025 0 0 1 1.3.091zm-31.143-26.677h22.622c4.074 0 7.388-3.314 7.388-7.388v-8.064h-19.306c-5.903 0-10.704 4.802-10.704 10.704zm0 11.545c0 8.274 6.731 15.005 15.005 15.005 8.274 0 15.005-6.732 15.005-15.006v-7.743a13.335 13.335 0 0 1-7.388 2.226h-22.622zm7.003 21.031l8.003 8.003 8.001-8.003zm45.941 24.557c0-12.538-9.449-22.906-21.599-24.372l-14.21 14.21a2.997 2.997 0 0 1-2.129.882 3 3 0 0 1-2.13-.883l-14.21-14.209c-11.194 1.351-20.088 10.258-21.42 21.456h24.41a3.014 3.014 0 0 1 0 6.027h-24.589v8.671h75.877z"/><path id="2aosb" d="M861.545 22.694c-6.313 0-11.45 5.137-11.45 11.45 0 5.271 3.58 9.718 8.436 11.045v7.358a3.014 3.014 0 0 0 6.027 0v-7.358c4.856-1.327 8.436-5.774 8.436-11.045 0-6.313-5.136-11.45-11.45-11.45zm0 16.874a5.43 5.43 0 0 1-5.424-5.424 5.43 5.43 0 0 1 5.424-5.423 5.43 5.43 0 0 1 5.424 5.423 5.43 5.43 0 0 1-5.424 5.424z"/><path id="2aosc" d="M922.034 46.197a11.374 11.374 0 0 0-8.096-3.353 11.375 11.375 0 0 0-8.097 3.354c-3.726 3.726-4.339 9.403-1.843 13.775l-5.204 5.203a3.015 3.015 0 0 0 2.131 5.144c.771 0 1.542-.294 2.13-.882l5.201-5.202a11.38 11.38 0 0 0 5.682 1.508c3.06 0 5.934-1.192 8.096-3.354a11.373 11.373 0 0 0 3.354-8.096c0-3.06-1.19-5.934-3.354-8.097zm-4.26 11.932a5.429 5.429 0 0 1-7.67 0 5.43 5.43 0 0 1 0-7.67 5.405 5.405 0 0 1 3.834-1.586c1.39 0 2.778.528 3.835 1.586a5.389 5.389 0 0 1 1.59 3.835 5.389 5.389 0 0 1-1.59 3.835z"/><path id="2aosd" d="M927.192 95.26c-5.27 0-9.719 3.58-11.045 8.436h-7.358a3.015 3.015 0 0 0 0 6.027h7.358c1.326 4.856 5.774 8.436 11.045 8.436 6.313 0 11.45-5.136 11.45-11.45 0-6.313-5.137-11.45-11.45-11.45zm0 16.873a5.43 5.43 0 0 1-5.424-5.423 5.43 5.43 0 0 1 5.424-5.424 5.43 5.43 0 0 1 5.423 5.424 5.43 5.43 0 0 1-5.423 5.423z"/><path id="2aose" d="M814.224 103.62h-7.359c-1.326-4.856-5.773-8.437-11.044-8.437-6.313 0-11.45 5.137-11.45 11.45 0 6.314 5.137 11.45 11.45 11.45 5.271 0 9.718-3.581 11.044-8.437h7.36a3.014 3.014 0 0 0 0-6.026zm-18.403 8.437a5.43 5.43 0 0 1-5.424-5.424 5.43 5.43 0 0 1 5.424-5.423 5.43 5.43 0 0 1 5.423 5.423 5.43 5.43 0 0 1-5.423 5.424z"/><path id="2aosf" d="M824.037 64.886l-5.202-5.201a11.378 11.378 0 0 0 1.507-5.681c0-3.06-1.191-5.935-3.353-8.097a11.375 11.375 0 0 0-8.097-3.354 11.37 11.37 0 0 0-8.096 3.354c-4.463 4.464-4.463 11.728 0 16.193a11.374 11.374 0 0 0 8.096 3.353c2.026 0 3.97-.526 5.682-1.507l5.2 5.2a3.006 3.006 0 0 0 2.132.884 3.014 3.014 0 0 0 2.131-5.144zm-11.308-7.05c0 .002-.001.002-.002.003a5.428 5.428 0 0 1-7.67 0 5.431 5.431 0 0 1 0-7.671 5.409 5.409 0 0 1 3.835-1.586c1.39 0 2.778.529 3.835 1.586a5.389 5.389 0 0 1 1.589 3.836 5.39 5.39 0 0 1-1.587 3.833z"/></defs><g><g transform="translate(-784 -22)"><use fill="#486fbe" xlink:href="#2aosa"/></g><g transform="translate(-784 -22)"><use fill="#486fbe" xlink:href="#2aosb"/></g><g transform="translate(-784 -22)"><use fill="#486fbe" xlink:href="#2aosc"/></g><g transform="translate(-784 -22)"><use fill="#486fbe" xlink:href="#2aosd"/></g><g transform="translate(-784 -22)"><use fill="#486fbe" xlink:href="#2aose"/></g><g transform="translate(-784 -22)"><use fill="#486fbe" xlink:href="#2aosf"/></g></g></svg>